<?xml version="1.0" standalone="no"?>
<!DOCTYPE svg PUBLIC "-//W3C//DTD SVG 20010904//EN"
 "http://www.w3.org/TR/2001/REC-SVG-20010904/DTD/svg10.dtd">
<svg version="1.0" xmlns="http://www.w3.org/2000/svg"
 width="512.000000pt" height="512.000000pt" viewBox="0 0 512.000000 512.000000"
 preserveAspectRatio="xMidYMid meet">
<metadata>
Created by potrace 1.16, written by Peter Selinger 2001-2019
</metadata>
<g transform="translate(0.000000,512.000000) scale(0.100000,-0.100000)"
fill="#000000" stroke="none">
<path d="M89 4877 c-27 -15 -52 -38 -66 -63 -21 -36 -23 -52 -23 -190 0 -141
2 -153 23 -185 35 -52 79 -77 150 -84 34 -3 514 -5 1067 -3 l1005 3 200 88
c121 53 209 98 223 113 16 18 22 38 22 69 0 70 -27 90 -254 189 l-199 86 -544
0 -544 0 -24 -25 c-33 -32 -33 -78 0 -110 l24 -25 496 0 495 0 0 -115 0 -115
-815 0 -815 0 0 115 0 115 175 0 c173 0 176 0 200 25 33 32 33 78 0 110 l-24
25 -364 0 c-362 0 -364 0 -408 -23z m261 -252 l0 -115 -84 0 c-111 0 -116 5
-116 119 0 54 4 91 12 99 8 8 45 12 100 12 l88 0 0 -115z"/>
<path d="M3504 4651 c-61 -37 -64 -48 -64 -243 l0 -178 -1623 0 c-1026 0
-1635 -4 -1656 -10 -55 -16 -106 -57 -135 -109 l-26 -49 2 -1404 3 -1403 29
-43 c16 -24 50 -55 75 -70 l46 -27 752 -3 753 -2 0 -169 0 -168 -135 -6 c-114
-4 -143 -9 -188 -30 -74 -33 -121 -79 -154 -145 -25 -51 -28 -70 -31 -178 l-4
-121 30 -34 30 -34 986 -3 c1100 -3 1032 -7 1063 66 23 54 13 221 -16 288 -25
57 -90 128 -142 154 -48 25 -143 40 -251 40 l-88 0 0 170 0 170 575 0 575 0 0
-178 c0 -146 4 -193 20 -257 27 -107 80 -197 164 -280 185 -183 457 -225 696
-109 97 48 220 169 267 264 62 124 64 145 61 602 -3 396 -4 415 -25 471 -68
181 -219 324 -398 380 -52 16 -96 21 -172 22 l-103 0 0 693 0 692 55 0 c46 0
60 4 80 25 33 32 33 78 0 110 l-24 25 -466 0 -465 0 0 330 0 330 685 0 685 0
0 -330 0 -330 -75 0 c-67 0 -79 -3 -100 -25 -16 -15 -25 -36 -25 -55 0 -19 9
-40 25 -55 22 -23 31 -25 126 -25 114 0 155 13 182 59 15 26 17 78 17 574 0
537 0 545 -21 571 -46 58 -12 56 -821 56 -714 0 -744 -1 -774 -19z m1466 -201
l0 -60 -685 0 -685 0 0 60 0 60 685 0 685 0 0 -60z m-1530 -670 l0 -290 34
-38 34 -37 376 -3 376 -3 0 -717 0 -717 -37 -20 c-21 -11 -61 -39 -90 -62
l-52 -43 -1247 -2 -1246 -3 -19 -24 c-25 -30 -24 -72 2 -105 l20 -26 1188 0
1187 0 -25 -73 c-20 -59 -25 -97 -29 -209 l-4 -138 -1844 0 c-1356 0 -1850 3
-1868 11 -38 18 -46 58 -46 240 l0 169 584 0 585 0 20 26 c26 33 27 75 2 105
l-19 24 -586 3 -586 2 0 105 0 105 155 0 155 0 38 34 37 34 3 791 c3 875 6
831 -61 871 -28 17 -51 20 -179 20 l-148 0 0 89 c0 101 12 144 43 159 15 7
519 11 1635 11 l1612 1 0 -290z m-3060 -215 l0 -85 -115 0 -115 0 0 85 0 85
115 0 115 0 0 -85z m0 -795 l0 -550 -115 0 -115 0 0 550 0 550 115 0 115 0 0
-550z m4060 -990 l0 -79 -36 -17 c-39 -19 -76 -62 -99 -117 -17 -42 -21 -211
-5 -268 13 -45 70 -112 110 -129 29 -12 30 -14 30 -83 0 -59 4 -75 22 -94 27
-29 77 -30 109 -4 20 16 24 30 27 92 l4 74 42 27 c27 17 53 47 72 80 27 49 29
60 29 163 0 97 -3 116 -25 160 -16 32 -42 63 -72 85 l-48 35 0 79 0 78 28 -6
c65 -16 151 -68 206 -125 71 -75 113 -162 126 -262 12 -96 12 -592 0 -689 -26
-200 -178 -358 -377 -392 -220 -37 -439 111 -499 337 -17 61 -19 725 -3 794
15 68 59 150 111 206 56 61 177 130 236 134 9 1 12 -21 12 -79z m124 -249 c23
-25 32 -126 17 -174 -21 -61 -92 -72 -121 -17 -5 10 -10 53 -10 94 0 63 4 80
20 96 25 25 72 26 94 1z m-1964 -591 l0 -170 -390 0 -390 0 0 170 0 170 390 0
390 0 0 -170z m385 -341 c77 -21 125 -90 125 -181 l0 -38 -900 0 -900 0 0 51
c0 85 43 147 118 169 43 13 1509 12 1557 -1z"/>
<path d="M2859 3821 c-13 -10 -60 -75 -103 -145 l-79 -126 -489 0 c-536 0
-542 -1 -572 -59 -14 -26 -16 -106 -16 -643 0 -590 1 -614 20 -645 12 -21 32
-36 57 -43 27 -8 222 -10 646 -8 l609 3 29 33 29 32 0 210 0 210 99 0 100 0 6
-47 c16 -129 57 -222 128 -295 227 -234 610 -172 755 121 32 65 37 84 40 168
9 193 -71 343 -229 436 -91 54 -252 73 -353 43 l-47 -14 -32 51 c-18 29 -122
194 -231 367 -109 173 -211 327 -227 343 -36 34 -103 38 -140 8z m340 -613
c138 -219 251 -400 251 -403 0 -3 -237 -5 -526 -5 -302 0 -524 4 -522 9 2 5
120 193 263 419 218 345 261 408 271 394 6 -9 124 -196 263 -414z m-629 178
c0 -2 -84 -136 -186 -298 -215 -338 -221 -353 -161 -413 l35 -35 286 0 286 0
0 -165 0 -165 -535 0 -535 0 0 540 0 540 405 0 c223 0 405 -2 405 -4z m1217
-494 c106 -55 173 -158 173 -267 0 -86 -23 -146 -81 -209 -63 -69 -130 -99
-219 -100 -153 0 -291 124 -302 274 l-3 45 123 5 124 5 30 34 c26 29 30 40 26
75 -3 24 -20 65 -41 97 -20 31 -33 60 -29 64 15 15 156 -1 199 -23z"/>
<path d="M765 3539 c-49 -28 -59 -78 -24 -123 l20 -26 314 0 314 0 20 26 c26
33 27 75 2 105 l-19 24 -304 2 c-209 2 -309 -1 -323 -8z"/>
<path d="M741 3274 c-12 -15 -21 -37 -21 -49 0 -12 9 -34 21 -49 l20 -26 314
0 c310 0 314 0 335 22 11 12 20 35 20 53 0 18 -9 41 -20 53 -21 22 -25 22
-335 22 l-314 0 -20 -26z"/>
<path d="M741 3034 c-24 -30 -26 -52 -10 -87 20 -44 43 -47 345 -47 231 0 290
3 313 15 46 24 55 74 20 119 l-20 26 -314 0 -314 0 -20 -26z"/>
<path d="M745 2675 c-16 -15 -25 -36 -25 -55 0 -19 9 -40 25 -55 l24 -25 306
0 306 0 24 25 c16 15 25 36 25 55 0 19 -9 40 -25 55 l-24 25 -306 0 -306 0
-24 -25z"/>
<path d="M763 2450 c-47 -19 -57 -87 -18 -125 l24 -25 306 0 306 0 24 25 c16
15 25 36 25 55 0 19 -9 40 -25 55 l-24 25 -298 -1 c-164 0 -308 -4 -320 -9z"/>
<path d="M765 2208 c-49 -28 -59 -78 -24 -122 l20 -26 179 0 c159 0 180 2 201
19 34 27 32 86 -5 117 -26 23 -33 24 -189 24 -103 0 -169 -5 -182 -12z"/>
<path d="M2015 1555 c-16 -15 -25 -36 -25 -55 0 -19 9 -40 25 -55 24 -25 27
-25 190 -25 92 0 175 4 185 10 25 13 41 65 30 94 -19 50 -41 56 -218 56 -160
0 -163 0 -187 -25z"/>
<path d="M3765 4085 c-33 -32 -34 -83 -2 -113 23 -22 24 -22 520 -22 484 0
498 1 517 20 31 31 27 93 -6 119 -26 21 -36 21 -516 21 l-489 0 -24 -25z"/>
<path d="M3766 3849 c-37 -29 -37 -89 0 -118 25 -19 40 -21 189 -21 149 0 164
2 189 21 20 16 26 29 26 59 0 30 -6 43 -26 59 -25 19 -40 21 -189 21 -149 0
-164 -2 -189 -21z"/>
<path d="M4315 3845 c-16 -15 -25 -36 -25 -55 0 -19 9 -40 25 -55 24 -25 24
-25 238 -25 202 0 216 1 241 21 20 16 26 29 26 59 0 30 -6 43 -26 59 -25 20
-39 21 -241 21 -214 0 -214 0 -238 -25z"/>
</g>
</svg>
