<?xml version="1.0" standalone="no"?>
<!DOCTYPE svg PUBLIC "-//W3C//DTD SVG 20010904//EN"
 "http://www.w3.org/TR/2001/REC-SVG-20010904/DTD/svg10.dtd">
<svg version="1.0" xmlns="http://www.w3.org/2000/svg"
 width="512.000000pt" height="512.000000pt" viewBox="0 0 512.000000 512.000000"
 preserveAspectRatio="xMidYMid meet">
<metadata>
Created by potrace 1.16, written by Peter Selinger 2001-2019
</metadata>
<g transform="translate(0.000000,512.000000) scale(0.100000,-0.100000)"
fill="#000000" stroke="none">
<path d="M1380 4890 l0 -230 -553 -2 -552 -3 -66 -32 c-79 -39 -140 -102 -177
-181 l-27 -57 0 -1555 0 -1555 33 -67 c38 -78 100 -138 182 -177 l55 -26 753
-3 752 -2 0 -219 0 -218 -144 -5 c-132 -5 -150 -8 -200 -32 -31 -15 -71 -45
-90 -68 -56 -65 -66 -109 -66 -295 l0 -163 1280 0 1280 0 0 163 c0 186 -10
230 -66 295 -19 23 -59 53 -90 68 -50 24 -68 27 -200 32 l-144 5 0 218 0 219
753 2 752 3 55 26 c82 39 144 99 182 177 l33 67 0 1555 0 1555 -27 57 c-37 79
-98 142 -176 181 -65 31 -70 32 -219 35 l-153 3 0 80 0 79 -400 0 -400 0 0
150 0 150 -1180 0 -1180 0 0 -230z m2206 58 c-3 -13 -6 -47 -6 -75 l0 -53
-200 0 -200 0 2 -677 3 -678 198 -3 197 -2 0 -70 0 -69 -97 -3 -98 -3 0 -405
0 -405 133 -3 132 -3 -6 -164 c-6 -126 -4 -165 5 -165 7 0 103 74 214 165
l202 164 358 1 357 0 0 410 0 410 -520 0 -520 0 0 70 0 70 400 0 400 0 0 526
0 526 128 -3 c113 -4 133 -7 177 -30 56 -28 102 -86 115 -145 6 -22 10 -521
10 -1156 l0 -1118 -2410 0 -2410 0 0 1118 c0 635 4 1134 10 1156 13 59 59 117
115 145 l49 26 528 3 528 3 0 -116 0 -115 -515 0 -515 0 0 -780 0 -780 515 0
515 0 0 -130 0 -130 -110 0 -110 0 0 -80 0 -80 1035 0 1035 0 0 80 0 80 -845
0 -845 0 0 130 0 130 713 2 712 3 3 778 2 777 -713 0 -714 0 -7 92 c-3 50 -6
205 -6 345 l0 253 1031 0 1031 0 -6 -22z m252 -753 c45 -27 78 -53 74 -56 -4
-4 -44 -30 -89 -58 l-83 -51 0 111 c0 61 4 109 8 107 5 -1 46 -25 90 -53z
m-1028 -321 c0 -193 -3 -244 -12 -238 -7 4 -74 60 -148 124 -74 63 -160 137
-191 163 l-56 47 -298 -320 -299 -320 -218 216 -218 216 -388 -381 -387 -381
-47 0 -48 0 0 560 0 560 1155 0 1155 0 0 -246z m-190 -291 l190 -163 0 -270 0
-270 -606 0 -605 0 138 149 c529 571 669 719 680 718 7 -1 98 -75 203 -164z
m-1083 -205 l162 -163 -156 -167 -157 -168 -345 0 -346 1 335 329 c184 181
337 330 340 330 3 0 78 -73 167 -162z m2653 -468 l0 -80 -255 0 -255 0 0 80 0
80 255 0 255 0 0 -80z m300 0 l0 -80 -80 0 -80 0 0 80 0 80 80 0 80 0 0 -80z
m478 -1298 c-3 -286 -3 -288 -29 -337 -31 -62 -86 -102 -158 -115 -74 -14
-4368 -14 -4442 0 -72 13 -127 53 -158 115 -26 49 -26 51 -29 337 l-3 288
2411 0 2411 0 -3 -288z m-1788 -837 l0 -225 -620 0 -620 0 0 225 0 225 620 0
620 0 0 -225z m443 -394 c49 -32 60 -58 65 -148 l5 -83 -1133 0 -1133 0 5 83
c5 90 16 116 65 148 27 18 73 19 1063 19 990 0 1036 -1 1063 -19z"/>
<path d="M2337 1754 c-4 -4 -7 -108 -7 -231 l0 -223 230 0 230 0 -2 228 -3
227 -221 3 c-121 1 -223 -1 -227 -4z m293 -229 l0 -75 -70 0 -70 0 0 75 0 75
70 0 70 0 0 -75z"/>
</g>
</svg>
